{
  "accessors": [
    {
      "bufferView": 2,
      "componentType": 5126,
      "count": 275,
      "max": [
        1.2729699611663818,
        0.3000899851322174,
        27.45281982421875
      ],
      "min": [
        -1.2729699611663818,
        -2.106339931488037,
        24.795589447021484
      ],
      "type": "VEC3"
    },
    {
      "bufferView": 2,
      "byteOffset": 3300,
      "componentType": 5126,
      "count": 275,
      "max": [
        0.9793849587440491,
        1.0,
        0.9732984900474548
      ],
      "min": [
        -0.9777106642723083,
        -0.960109531879425,
        -5.9109373978571966e-05
      ],
      "type": "VEC3"
    },
    {
      "bufferView": 1,
      "componentType": 5126,
      "count": 275,
      "max": [
        0.9981099963188171,
        1.000059962272644
      ],
      "min": [
        0.0,
        0.0019500255584716797
      ],
      "type": "VEC2"
    },
    {
      "bufferView": 0,
      "componentType": 5125,
      "count": 1344,
      "type": "SCALAR"
    },
    {
      "bufferView": 2,
      "byteOffset": 6600,
      "componentType": 5126,
      "count": 984,
      "max": [
        1.4715700149536133,
        1.3751399517059326,
        26.10650062561035
      ],
      "min": [
        -1.4715700149536133,
        -2.6331140995025635,
        19.114240646362305
      ],
      "type": "VEC3"
    },
    {
      "bufferView": 2,
      "byteOffset": 18408,
      "componentType": 5126,
      "count": 984,
      "max": [
        0.9987286925315857,
        1.0,
        1.0
      ],
      "min": [
        -1.0,
        -1.0,
        -1.0
      ],
      "type": "VEC3"
    },
    {
      "bufferView": 1,
      "byteOffset": 2200,
      "componentType": 5126,
      "count": 984,
      "max": [
        0.9656999707221985,
        1.0
      ],
      "min": [
        -0.0412600003182888,
        0.0
      ],
      "type": "VEC2"
    },
    {
      "bufferView": 0,
      "byteOffset": 5376,
      "componentType": 5125,
      "count": 2778,
      "type": "SCALAR"
    },
    {
      "bufferView": 2,
      "byteOffset": 30216,
      "componentType": 5126,
      "count": 1380,
      "max": [
        1.4714800119400024,
        1.5215200185775757,
        19.30632972717285
      ],
      "min": [
        -1.4714800119400024,
        -2.6227848529815674,
        -3.474410057067871
      ],
      "type": "VEC3"
    },
    {
      "bufferView": 2,
      "byteOffset": 46776,
      "componentType": 5126,
      "count": 1380,
      "max": [
        1.0,
        1.0,
        1.0
      ],
      "min": [
        -1.0,
        -1.0,
        -1.0
      ],
      "type": "VEC3"
    },
    {
      "bufferView": 1,
      "byteOffset": 10072,
      "componentType": 5126,
      "count": 1380,
      "max": [
        1.000059962272644,
        1.0
      ],
      "min": [
        0.0,
        0.0
      ],
      "type": "VEC2"
    },
    {
      "bufferView": 0,
      "byteOffset": 16488,
      "componentType": 5125,
      "count": 4041,
      "type": "SCALAR"
    },
    {
      "bufferView": 2,
      "byteOffset": 63336,
      "componentType": 5126,
      "count": 851,
      "max": [
        1.7913600206375122,
        1.4064799547195435,
        -3.412750005722046
      ],
      "min": [
        -1.7913600206375122,
        -2.6226298809051514,
        -20.91391944885254
      ],
      "type": "VEC3"
    },
    {
      "bufferView": 2,
      "byteOffset": 73548,
      "componentType": 5126,
      "count": 851,
      "max": [
        1.0,
        1.0,
        0.9323982000350952
      ],
      "min": [
        -1.0,
        -1.0,
        -1.0
      ],
      "type": "VEC3"
    },
    {
      "bufferView": 1,
      "byteOffset": 21112,
      "componentType": 5126,
      "count": 851,
      "max": [
        1.0,
        1.0
      ],
      "min": [
        0.0,
        0.0
      ],
      "type": "VEC2"
    },
    {
      "bufferView": 0,
      "byteOffset": 32652,
      "componentType": 5125,
      "count": 2997,
      "type": "SCALAR"
    },
    {
      "bufferView": 2,
      "byteOffset": 83760,
      "componentType": 5126,
      "count": 1408,
      "max": [
        19.812705993652344,
        0.39806848764419556,
        13.047151565551758
      ],
      "min": [
        -19.812713623046875,
        -1.1461827754974365,
        7.502753257751465
      ],
      "type": "VEC3"
    },
    {
      "bufferView": 2,
      "byteOffset": 100656,
      "componentType": 5126,
      "count": 1408,
      "max": [
        0.9998524188995361,
        0.9853945970535278,
        0.5210214257240295
      ],
      "min": [
        -0.9998480081558228,
        -0.9853776097297668,
        -0.2057795524597168
      ],
      "type": "VEC3"
    },
    {
      "bufferView": 1,
      "byteOffset": 27920,
      "componentType": 5126,
      "count": 1408,
      "max": [
        0.16412000358104706,
        0.98444002866745
      ],
      "min": [
        0.019530000165104866,
        0.8476600050926208
      ],
      "type": "VEC2"
    },
    {
      "bufferView": 0,
      "byteOffset": 44640,
      "componentType": 5125,
      "count": 3216,
      "type": "SCALAR"
    },
    {
      "bufferView": 2,
      "byteOffset": 117552,
      "componentType": 5126,
      "count": 180,
      "max": [
        19.806964874267578,
        0.41514629125595093,
        12.843358039855957
      ],
      "min": [
        -19.806974411010742,
        -1.1440327167510986,
        7.49076509475708
      ],
      "type": "VEC3"
    },
    {
      "bufferView": 2,
      "byteOffset": 119712,
      "componentType": 5126,
      "count": 180,
      "max": [
        0.0,
        2.570895730968914e-06,
        1.0
      ],
      "min": [
        0.0,
        -6.730833774781786e-06,
        1.0
      ],
      "type": "VEC3"
    },
    {
      "bufferView": 1,
      "byteOffset": 39184,
      "componentType": 5126,
      "count": 180,
      "max": [
        1.0,
        1.000059962272644
      ],
      "min": [
        0.0,
        0.0
      ],
      "type": "VEC2"
    },
    {
      "bufferView": 0,
      "byteOffset": 57504,
      "componentType": 5125,
      "count": 192,
      "type": "SCALAR"
    },
    {
      "bufferView": 2,
      "byteOffset": 121872,
      "componentType": 5126,
      "count": 2278,
      "max": [
        -10.00750732421875,
        1.249362826347351,
        13.60012149810791
      ],
      "min": [
        -24.620370864868164,
        -1.3262585401535034,
        -5.160526275634766
      ],
      "type": "VEC3"
    },
    {
      "bufferView": 2,
      "byteOffset": 149208,
      "componentType": 5126,
      "count": 2278,
      "max": [
        0.999559760093689,
        0.9999545216560364,
        0.9997549057006836
      ],
      "min": [
        -0.999847412109375,
        -0.9997319579124451,
        -0.9621984958648682
      ],
      "type": "VEC3"
    },
    {
      "bufferView": 1,
      "byteOffset": 40624,
      "componentType": 5126,
      "count": 2278,
      "max": [
        0.9941999912261963,
        0.9941999912261963
      ],
      "min": [
        0.0,
        0.0
      ],
      "type": "VEC2"
    },
    {
      "bufferView": 0,
      "byteOffset": 58272,
      "componentType": 5125,
      "count": 6666,
      "type": "SCALAR"
    },
    {
      "bufferView": 2,
      "byteOffset": 176544,
      "componentType": 5126,
      "count": 2278,
      "max": [
        24.62023162841797,
        1.2578086853027344,
        13.60012149810791
      ],
      "min": [
        10.004680633544922,
        -1.317942500114441,
        -5.160526275634766
      ],
      "type": "VEC3"
    },
    {
      "bufferView": 2,
      "byteOffset": 203880,
      "componentType": 5126,
      "count": 2278,
      "max": [
        0.999914824962616,
        0.9999545812606812,
        0.9997549653053284
      ],
      "min": [
        -0.9998478889465332,
        -0.9997320771217346,
        -0.9621992707252502
      ],
      "type": "VEC3"
    },
    {
      "bufferView": 1,
      "byteOffset": 58848,
      "componentType": 5126,
      "count": 2278,
      "max": [
        0.9941999912261963,
        0.9941999912261963
      ],
      "min": [
        0.0,
        0.0
      ],
      "type": "VEC2"
    },
    {
      "bufferView": 0,
      "byteOffset": 84936,
      "componentType": 5125,
      "count": 6666,
      "type": "SCALAR"
    },
    {
      "bufferView": 2,
      "byteOffset": 231216,
      "componentType": 5126,
      "count": 296,
      "max": [
        1.1832400560379028,
        -1.3471399545669556,
        25.303489685058594
      ],
      "min": [
        -1.1832400560379028,
        -2.57381010055542,
        20.49295997619629
      ],
      "type": "VEC3"
    },
    {
      "bufferView": 2,
      "byteOffset": 234768,
      "componentType": 5126,
      "count": 296,
      "max": [
        0.9951621890068054,
        0.999168872833252,
        0.987351655960083
      ],
      "min": [
        -0.9948189854621887,
        -0.9999986290931702,
        -0.6471427083015442
      ],
      "type": "VEC3"
    },
    {
      "bufferView": 1,
      "byteOffset": 77072,
      "componentType": 5126,
      "count": 296,
      "max": [
        1.000059962272644,
        1.000059962272644
      ],
      "min": [
        0.0,
        0.7460899949073792
      ],
      "type": "VEC2"
    },
    {
      "bufferView": 0,
      "byteOffset": 111600,
      "componentType": 5125,
      "count": 1152,
      "type": "SCALAR"
    },
    {
      "bufferView": 2,
      "byteOffset": 238320,
      "componentType": 5126,
      "count": 97,
      "max": [
        -0.5225940346717834,
        -2.1031558513641357,
        24.52586555480957
      ],
      "min": [
        -1.1099140644073486,
        -2.5658059120178223,
        23.97754669189453
      ],
      "type": "VEC3"
    },
    {
      "bufferView": 2,
      "byteOffset": 239484,
      "componentType": 5126,
      "count": 97,
      "max": [
        0.9972021579742432,
        -0.01565374992787838,
        0.997200071811676
      ],
      "min": [
        -0.9972021579742432,
        -0.9842563271522522,
        -0.9998775124549866
      ],
      "type": "VEC3"
    },
    {
      "bufferView": 1,
      "byteOffset": 79440,
      "componentType": 5126,
      "count": 97,
      "max": [
        1.0,
        1.000059962272644
      ],
      "min": [
        0.0,
        0.007809996604919434
      ],
      "type": "VEC2"
    },
    {
      "bufferView": 0,
      "byteOffset": 116208,
      "componentType": 5125,
      "count": 408,
      "type": "SCALAR"
    },
    {
      "bufferView": 2,
      "byteOffset": 240648,
      "componentType": 5126,
      "count": 150,
      "max": [
        1.1099140644073486,
        -2.1031558513641357,
        24.52586555480957
      ],
      "min": [
        0.5225939750671387,
        -2.5658059120178223,
        23.97754669189453
      ],
      "type": "VEC3"
    },
    {
      "bufferView": 2,
      "byteOffset": 242448,
      "componentType": 5126,
      "count": 150,
      "max": [
        0.997200608253479,
        0.17178000509738922,
        0.9972002506256104
      ],
      "min": [
        -0.9979814291000366,
        -0.9842174053192139,
        -0.9998944401741028
      ],
      "type": "VEC3"
    },
    {
      "bufferView": 1,
      "byteOffset": 80216,
      "componentType": 5126,
      "count": 150,
      "max": [
        0.9922500252723694,
        1.000059962272644
      ],
      "min": [
        0.0,
        0.007809996604919434
      ],
      "type": "VEC2"
    },
    {
      "bufferView": 0,
      "byteOffset": 117840,
      "componentType": 5125,
      "count": 660,
      "type": "SCALAR"
    },
    {
      "bufferView": 2,
      "byteOffset": 244248,
      "componentType": 5126,
      "count": 110,
      "max": [
        1.2127200365066528,
        1.2147200107574463,
        25.871950149536133
      ],
      "min": [
        -1.2126699686050415,
        0.3776099979877472,
        23.770999908447266
      ],
      "type": "VEC3"
    },
    {
      "bufferView": 2,
      "byteOffset": 245568,
      "componentType": 5126,
      "count": 110,
      "max": [
        0.9371848702430725,
        0.925042986869812,
        0.7009361386299133
      ],
      "min": [
        -0.9397055506706238,
        -0.1769872009754181,
        0.01585051417350769
      ],
      "type": "VEC3"
    },
    {
      "bufferView": 1,
      "byteOffset": 81416,
      "componentType": 5126,
      "count": 110,
      "max": [
        0.9961599707603455,
        1.000059962272644
      ],
      "min": [
        0.0,
        0.00391000509262085
      ],
      "type": "VEC2"
    },
    {
      "bufferView": 0,
      "byteOffset": 120480,
      "componentType": 5125,
      "count": 210,
      "type": "SCALAR"
    },
    {
      "bufferView": 2,
      "byteOffset": 246888,
      "componentType": 5126,
      "count": 962,
      "max": [
        7.05454683303833,
        0.9073020219802856,
        2.036210060119629
      ],
      "min": [
        -8.577058792114258,
        -3.3765058517456055,
        -5.192363739013672
      ],
      "type": "VEC3"
    },
    {
      "bufferView": 2,
      "byteOffset": 258432,
      "componentType": 5126,
      "count": 962,
      "max": [
        0.9984689354896545,
        0.9326635599136353,
        0.8655027747154236
      ],
      "min": [
        -0.9984689354896545,
        -0.8858954906463623,
        -0.9212788343429565
      ],
      "type": "VEC3"
    },
    {
      "bufferView": 1,
      "byteOffset": 82296,
      "componentType": 5126,
      "count": 962,
      "max": [
        1.000059962272644,
        1.000059962272644
      ],
      "min": [
        0.0,
        0.0
      ],
      "type": "VEC2"
    },
    {
      "bufferView": 0,
      "byteOffset": 121320,
      "componentType": 5125,
      "count": 1014,
      "type": "SCALAR"
    },
    {
      "bufferView": 2,
      "byteOffset": 269976,
      "componentType": 5126,
      "count": 2726,
      "max": [
        20.86721420288086,
        1.0345194339752197,
        22.82745933532715
      ],
      "min": [
        -20.867351531982422,
        -2.632863998413086,
        -21.328350067138672
      ],
      "type": "VEC3"
    },
    {
      "bufferView": 2,
      "byteOffset": 302688,
      "componentType": 5126,
      "count": 2726,
      "max": [
        1.0,
        1.0,
        1.0
      ],
      "min": [
        -1.0,
        -1.0,
        -1.0
      ],
      "type": "VEC3"
    },
    {
      "bufferView": 1,
      "byteOffset": 89992,
      "componentType": 5126,
      "count": 2726,
      "max": [
        0.0,
        0.0
      ],
      "min": [
        0.0,
        0.0
      ],
      "type": "VEC2"
    },
    {
      "bufferView": 0,
      "byteOffset": 125376,
      "componentType": 5125,
      "count": 6222,
      "type": "SCALAR"
    },
    {
      "bufferView": 2,
      "byteOffset": 335400,
      "componentType": 5126,
      "count": 1094,
      "max": [
        0.43821001052856445,
        0.1384499967098236,
        20.309188842773438
      ],
      "min": [
        -0.43838998675346375,
        -2.6294641494750977,
        -20.79738998413086
      ],
      "type": "VEC3"
    },
    {
      "bufferView": 2,
      "byteOffset": 348528,
      "componentType": 5126,
      "count": 1094,
      "max": [
        1.0,
        1.0,
        1.0
      ],
      "min": [
        -1.0,
        -1.0,
        -1.0
      ],
      "type": "VEC3"
    },
    {
      "bufferView": 1,
      "byteOffset": 111800,
      "componentType": 5126,
      "count": 1094,
      "max": [
        0.0,
        0.0
      ],
      "min": [
        0.0,
        0.0
      ],
      "type": "VEC2"
    },
    {
      "bufferView": 0,
      "byteOffset": 150264,
      "componentType": 5125,
      "count": 2196,
      "type": "SCALAR"
    },
    {
      "bufferView": 2,
      "byteOffset": 361656,
      "componentType": 5126,
      "count": 1544,
      "max": [
        19.5385799407959,
        1.405019998550415,
        25.738990783691406
      ],
      "min": [
        -19.55476951599121,
        -1.0066449642181396,
        -21.3101806640625
      ],
      "type": "VEC3"
    },
    {
      "bufferView": 2,
      "byteOffset": 380184,
      "componentType": 5126,
      "count": 1544,
      "max": [
        1.0,
        1.0,
        1.0
      ],
      "min": [
        -1.0,
        -1.0,
        -1.0
      ],
      "type": "VEC3"
    },
    {
      "bufferView": 1,
      "byteOffset": 120552,
      "componentType": 5126,
      "count": 1544,
      "max": [
        0.0,
        0.0
      ],
      "min": [
        0.0,
        0.0
      ],
      "type": "VEC2"
    },
    {
      "bufferView": 0,
      "byteOffset": 159048,
      "componentType": 5125,
      "count": 3144,
      "type": "SCALAR"
    },
    {
      "bufferView": 2,
      "byteOffset": 398712,
      "componentType": 5126,
      "count": 24,
      "max": [
        0.5371299982070923,
        1.3739399909973145,
        -5.542290210723877
      ],
      "min": [
        -0.5371299982070923,
        1.2862000465393066,
        -5.735310077667236
      ],
      "type": "VEC3"
    },
    {
      "bufferView": 2,
      "byteOffset": 399000,
      "componentType": 5126,
      "count": 24,
      "max": [
        0.8260341286659241,
        0.9386916160583496,
        0.7737684845924377
      ],
      "min": [
        -0.826036810874939,
        0.40984511375427246,
        -0.7737746834754944
      ],
      "type": "VEC3"
    },
    {
      "bufferView": 1,
      "byteOffset": 132904,
      "componentType": 5126,
      "count": 24,
      "max": [
        0.0,
        0.0
      ],
      "min": [
        0.0,
        0.0
      ],
      "type": "VEC2"
    },
    {
      "bufferView": 0,
      "byteOffset": 171624,
      "componentType": 5125,
      "count": 96,
      "type": "SCALAR"
    },
    {
      "bufferView": 2,
      "byteOffset": 399288,
      "componentType": 5126,
      "count": 8,
      "max": [
        0.11639221012592316,
        3.437150478363037,
        1.0829124450683594
      ],
      "min": [
        -0.3320130407810211,
        -3.447333335876465,
        -1.02783203125
      ],
      "type": "VEC3"
    },
    {
      "bufferView": 2,
      "byteOffset": 399384,
      "componentType": 5126,
      "count": 8,
      "max": [
        0.2342253029346466,
        0.23538726568222046,
        0.9432622194290161
      ],
      "min": [
        -0.9640212655067444,
        0.07684173434972763,
        0.2544768452644348
      ],
      "type": "VEC3"
    },
    {
      "bufferView": 1,
      "byteOffset": 133096,
      "componentType": 5126,
      "count": 8,
      "max": [
        0.10058999806642532,
        0.5117200016975403
      ],
      "min": [
        0.03612999990582466,
        0.012700021266937256
      ],
      "type": "VEC2"
    },
    {
      "bufferView": 0,
      "byteOffset": 172008,
      "componentType": 5125,
      "count": 12,
      "type": "SCALAR"
    },
    {
      "bufferView": 2,
      "byteOffset": 399480,
      "componentType": 5126,
      "count": 8,
      "max": [
        0.2845853567123413,
        3.437150478363037,
        1.0448741912841797
      ],
      "min": [
        -0.3320130407810211,
        -3.4772682189941406,
        -1.02783203125
      ],
      "type": "VEC3"
    },
    {
      "bufferView": 2,
      "byteOffset": 399576,
      "componentType": 5126,
      "count": 8,
      "max": [
        0.9880096316337585,
        0.13022099435329437,
        0.4384680986404419
      ],
      "min": [
        0.7111231684684753,
        -0.14379911124706268,
        -0.6882047057151794
      ],
      "type": "VEC3"
    },
    {
      "bufferView": 1,
      "byteOffset": 133160,
      "componentType": 5126,
      "count": 8,
      "max": [
        0.9648399949073792,
        0.5107399821281433
      ],
      "min": [
        0.8994100093841553,
        0.017579972743988037
      ],
      "type": "VEC2"
    },
    {
      "bufferView": 0,
      "byteOffset": 172056,
      "componentType": 5125,
      "count": 12,
      "type": "SCALAR"
    },
    {
      "bufferView": 2,
      "byteOffset": 399672,
      "componentType": 5126,
      "count": 150,
      "max": [
        0.41442999243736267,
        8.502790451049805,
        -9.150639533996582
      ],
      "min": [
        -0.2217700034379959,
        1.192270040512085,
        -18.371410369873047
      ],
      "type": "VEC3"
    },
    {
      "bufferView": 2,
      "byteOffset": 401472,
      "componentType": 5126,
      "count": 150,
      "max": [
        0.9992391467094421,
        0.9503254294395447,
        0.7720904350280762
      ],
      "min": [
        -0.7739390134811401,
        -0.9998478293418884,
        -0.9990599155426025
      ],
      "type": "VEC3"
    },
    {
      "bufferView": 1,
      "byteOffset": 133224,
      "componentType": 5126,
      "count": 150,
      "max": [
        0.8613899946212769,
        0.44147002696990967
      ],
      "min": [
        0.3632799983024597,
        0.04688000679016113
      ],
      "type": "VEC2"
    },
    {
      "bufferView": 0,
      "byteOffset": 172104,
      "componentType": 5125,
      "count": 402,
      "type": "SCALAR"
    },
    {
      "bufferView": 2,
      "byteOffset": 403272,
      "componentType": 5126,
      "count": 96,
      "max": [
        0.22495000064373016,
        8.502790451049805,
        -9.150639533996582
      ],
      "min": [
        -0.40999001264572144,
        1.192270040512085,
        -18.371410369873047
      ],
      "type": "VEC3"
    },
    {
      "bufferView": 2,
      "byteOffset": 404424,
      "componentType": 5126,
      "count": 96,
      "max": [
        0.9079494476318359,
        0.9501380920410156,
        0.7720767259597778
      ],
      "min": [
        -0.9993472695350647,
        -0.9511497616767883,
        -0.9990557432174683
      ],
      "type": "VEC3"
    },
    {
      "bufferView": 1,
      "byteOffset": 134424,
      "componentType": 5126,
      "count": 96,
      "max": [
        0.6348299980163574,
        0.44147002696990967
      ],
      "min": [
        0.13866999745368958,
        0.04688000679016113
      ],
      "type": "VEC2"
    },
    {
      "bufferView": 0,
      "byteOffset": 173712,
      "componentType": 5125,
      "count": 363,
      "type": "SCALAR"
    },
    {
      "bufferView": 2,
      "byteOffset": 405576,
      "componentType": 5126,
      "count": 197,
      "max": [
        27.991046905517578,
        1.2704694271087646,
        16.656110763549805
      ],
      "min": [
        0.2345699667930603,
        0.018454987555742264,
        -7.873818397521973
      ],
      "type": "VEC3"
    },
    {
      "bufferView": 2,
      "byteOffset": 407940,
      "componentType": 5126,
      "count": 197,
      "max": [
        0.9998989105224609,
        0.3195476531982422,
        0.8646218776702881
      ],
      "min": [
        -0.9650188088417053,
        -0.9999628067016602,
        -0.9412620067596436
      ],
      "type": "VEC3"
    },
    {
      "bufferView": 1,
      "byteOffset": 135192,
      "componentType": 5126,
      "count": 197,
      "max": [
        1.000059962272644,
        1.000059962272644
      ],
      "min": [
        0.0,
        0.12401998043060303
      ],
      "type": "VEC2"
    },
    {
      "bufferView": 0,
      "byteOffset": 175164,
      "componentType": 5125,
      "count": 474,
      "type": "SCALAR"
    },
    {
      "bufferView": 2,
      "byteOffset": 410304,
      "componentType": 5126,
      "count": 1429,
      "max": [
        27.990951538085938,
        1.3921846151351929,
        16.656110763549805
      ],
      "min": [
        0.22454528510570526,
        0.023654194548726082,
        -7.873818397521973
      ],
      "type": "VEC3"
    },
    {
      "bufferView": 2,
      "byteOffset": 427452,
      "componentType": 5126,
      "count": 1429,
      "max": [
        0.9987772703170776,
        0.9998779892921448,
        0.864652693271637
      ],
      "min": [
        -0.998778760433197,
        -0.9988389015197754,
        -0.9183647036552429
      ],
      "type": "VEC3"
    },
    {
      "bufferView": 1,
      "byteOffset": 136768,
      "componentType": 5126,
      "count": 1429,
      "max": [
        1.0,
        1.000059962272644
      ],
      "min": [
        0.0,
        0.12401998043060303
      ],
      "type": "VEC2"
    },
    {
      "bufferView": 0,
      "byteOffset": 177060,
      "componentType": 5125,
      "count": 1899,
      "type": "SCALAR"
    },
    {
      "bufferView": 2,
      "byteOffset": 444600,
      "componentType": 5126,
      "count": 586,
      "max": [
        19.5385799407959,
        0.9429851770401001,
        2.3381688594818115
      ],
      "min": [
        13.344949722290039,
        0.4287031590938568,
        -1.860257863998413
      ],
      "type": "VEC3"
    },
    {
      "bufferView": 2,
      "byteOffset": 451632,
      "componentType": 5126,
      "count": 586,
      "max": [
        0.9920912981033325,
        0.9897112250328064,
        0.6935547590255737
      ],
      "min": [
        -0.9920806288719177,
        -0.1398434042930603,
        -0.8659766912460327
      ],
      "type": "VEC3"
    },
    {
      "bufferView": 1,
      "byteOffset": 148200,
      "componentType": 5126,
      "count": 586,
      "max": [
        1.0,
        1.000059962272644
      ],
      "min": [
        0.0,
        0.8789100050926208
      ],
      "type": "VEC2"
    },
    {
      "bufferView": 0,
      "byteOffset": 184656,
      "componentType": 5125,
      "count": 600,
      "type": "SCALAR"
    },
    {
      "bufferView": 2,
      "byteOffset": 458664,
      "componentType": 5126,
      "count": 16,
      "max": [
        18.884265899658203,
        0.6103386282920837,
        7.139170169830322
      ],
      "min": [
        2.3026537895202637,
        0.0407438650727272,
        -2.978424549102783
      ],
      "type": "VEC3"
    },
    {
      "bufferView": 2,
      "byteOffset": 458856,
      "componentType": 5126,
      "count": 16,
      "max": [
        0.02924218587577343,
        0.9999938011169434,
        0.1265193521976471
      ],
      "min": [
        -0.11505298316478729,
        0.9819497466087341,
        -0.16924062371253967
      ],
      "type": "VEC3"
    },
    {
      "bufferView": 1,
      "byteOffset": 152888,
      "componentType": 5126,
      "count": 16,
      "max": [
        0.49810999631881714,
        0.6660799980163574
      ],
      "min": [
        0.0019499999471008778,
        0.3652299642562866
      ],
      "type": "VEC2"
    },
    {
      "bufferView": 0,
      "byteOffset": 187056,
      "componentType": 5125,
      "count": 39,
      "type": "SCALAR"
    },
    {
      "bufferView": 2,
      "byteOffset": 459048,
      "componentType": 5126,
      "count": 182,
      "max": [
        -0.23483775556087494,
        1.2615258693695068,
        16.656110763549805
      ],
      "min": [
        -27.991186141967773,
        0.00949869118630886,
        -7.873818874359131
      ],
      "type": "VEC3"
    },
    {
      "bufferView": 2,
      "byteOffset": 461232,
      "componentType": 5126,
      "count": 182,
      "max": [
        0.9650189876556396,
        0.3195357322692871,
        0.8647449016571045
      ],
      "min": [
        -0.999898374080658,
        -0.9999873042106628,
        -0.9413419961929321
      ],
      "type": "VEC3"
    },
    {
      "bufferView": 1,
      "byteOffset": 153016,
      "componentType": 5126,
      "count": 182,
      "max": [
        1.000059962272644,
        1.000059962272644
      ],
      "min": [
        0.0,
        0.12401998043060303
      ],
      "type": "VEC2"
    },
    {
      "bufferView": 0,
      "byteOffset": 187212,
      "componentType": 5125,
      "count": 459,
      "type": "SCALAR"
    },
    {
      "bufferView": 2,
      "byteOffset": 463416,
      "componentType": 5126,
      "count": 840,
      "max": [
        -0.2248130887746811,
        1.3832409381866455,
        16.656110763549805
      ],
      "min": [
        -27.9910888671875,
        0.014697897247970104,
        -7.873818874359131
      ],
      "type": "VEC3"
    },
    {
      "bufferView": 2,
      "byteOffset": 473496,
      "componentType": 5126,
      "count": 840,
      "max": [
        0.9226801991462708,
        0.9998505711555481,
        0.9341473579406738
      ],
      "min": [
        -0.9961918592453003,
        -0.9988468289375305,
        -0.9183777570724487
      ],
      "type": "VEC3"
    },
    {
      "bufferView": 1,
      "byteOffset": 154472,
      "componentType": 5126,
      "count": 840,
      "max": [
        1.0,
        1.000059962272644
      ],
      "min": [
        0.0,
        0.12401998043060303
      ],
      "type": "VEC2"
    },
    {
      "bufferView": 0,
      "byteOffset": 189048,
      "componentType": 5125,
      "count": 1302,
      "type": "SCALAR"
    },
    {
      "bufferView": 2,
      "byteOffset": 483576,
      "componentType": 5126,
      "count": 18,
      "max": [
        -2.4244160652160645,
        0.7401173114776611,
        7.159211158752441
      ],
      "min": [
        -18.875577926635742,
        0.1906108558177948,
        -2.5469465255737305
      ],
      "type": "VEC3"
    },
    {
      "bufferView": 2,
      "byteOffset": 483792,
      "componentType": 5126,
      "count": 18,
      "max": [
        -0.06992346793413162,
        -0.9901304244995117,
        0.10566650331020355
      ],
      "min": [
        -0.11989034712314606,
        -0.9925589561462402,
        0.021364009007811546
      ],
      "type": "VEC3"
    },
    {
      "bufferView": 1,
      "byteOffset": 161192,
      "componentType": 5126,
      "count": 18,
      "max": [
        0.9736300110816956,
        0.3017599582672119
      ],
      "min": [
        0.6972699761390686,
        0.13770002126693726
      ],
      "type": "VEC2"
    },
    {
      "bufferView": 0,
      "byteOffset": 194256,
      "componentType": 5125,
      "count": 18,
      "type": "SCALAR"
    },
    {
      "bufferView": 2,
      "byteOffset": 484008,
      "componentType": 5126,
      "count": 596,
      "max": [
        -2.28796124458313,
        1.01058030128479,
        11.185920715332031
      ],
      "min": [
        -9.733369827270508,
        0.6938169598579407,
        6.8267717361450195
      ],
      "type": "VEC3"
    },
    {
      "bufferView": 2,
      "byteOffset": 491160,
      "componentType": 5126,
      "count": 596,
      "max": [
        0.9987772107124329,
        0.04246281087398529,
        0.025458095595240593
      ],
      "min": [
        -0.9987786412239075,
        -0.04246443137526512,
        -0.025462988764047623
      ],
      "type": "VEC3"
    },
    {
      "bufferView": 1,
      "byteOffset": 161336,
      "componentType": 5126,
      "count": 596,
      "max": [
        0.7100200057029724,
        0.7080699801445007
      ],
      "min": [
        0.7089800238609314,
        0.7070299983024597
      ],
      "type": "VEC2"
    },
    {
      "bufferView": 0,
      "byteOffset": 194328,
      "componentType": 5125,
      "count": 600,
      "type": "SCALAR"
    },
    {
      "bufferView": 2,
      "byteOffset": 498312,
      "componentType": 5126,
      "count": 610,
      "max": [
        -13.361140251159668,
        0.9364089965820313,
        2.33054780960083
      ],
      "min": [
        -19.55476951599121,
        0.3935551643371582,
        -1.8678789138793945
      ],
      "type": "VEC3"
    },
    {
      "bufferView": 2,
      "byteOffset": 505632,
      "componentType": 5126,
      "count": 610,
      "max": [
        0.9920831322669983,
        0.9897105693817139,
        0.7161221504211426
      ],
      "min": [
        -0.9920880794525146,
        -0.13981886208057404,
        -0.8660854697227478
      ],
      "type": "VEC3"
    },
    {
      "bufferView": 1,
      "byteOffset": 166104,
      "componentType": 5126,
      "count": 610,
      "max": [
        1.0,
        0.8320900201797485
      ],
      "min": [
        0.0,
        0.7109400033950806
      ],
      "type": "VEC2"
    },
    {
      "bufferView": 0,
      "byteOffset": 196728,
      "componentType": 5125,
      "count": 624,
      "type": "SCALAR"
    },
    {
      "bufferView": 2,
      "byteOffset": 512952,
      "componentType": 5126,
      "count": 19,
      "max": [
        -2.3801023960113525,
        0.6013951897621155,
        7.157901287078857
      ],
      "min": [
        -18.884397506713867,
        0.038842249661684036,
        -2.9784257411956787
      ],
      "type": "VEC3"
    },
    {
      "bufferView": 2,
      "byteOffset": 513180,
      "componentType": 5126,
      "count": 19,
      "max": [
        0.9915913939476013,
        0.9999091625213623,
        0.12164296209812164
      ],
      "min": [
        -0.036537282168865204,
        0.11325854808092117,
        -0.15271234512329102
      ],
      "type": "VEC3"
    },
    {
      "bufferView": 1,
      "byteOffset": 170984,
      "componentType": 5126,
      "count": 19,
      "max": [
        0.9961599707603455,
        0.9922500252723694
      ],
      "min": [
        0.4980500042438507,
        0.6953099966049194
      ],
      "type": "VEC2"
    },
    {
      "bufferView": 0,
      "byteOffset": 199224,
      "componentType": 5125,
      "count": 42,
      "type": "SCALAR"
    }
  ],
  "asset": {
    "extras": {
      "author": "bohmerang (https://sketchfab.com/bohmerang)",
      "license": "CC-BY-4.0 (http://creativecommons.org/licenses/by/4.0/)",
      "source": "https://sketchfab.com/3d-models/boeing-b-52-stratofortress-38b0c64bd552431394efa8625d7f5144",
      "title": "Boeing B-52 Stratofortress"
    },
    "generator": "Sketchfab-15.36.0",
    "version": "2.0"
  },
  "bufferViews": [
    {
      "buffer": 0,
      "byteLength": 199392,
      "name": "floatBufferViews",
      "target": 34963
    },
    {
      "buffer": 0,
      "byteLength": 171136,
      "byteOffset": 199392,
      "byteStride": 8,
      "name": "floatBufferViews",
      "target": 34962
    },
    {
      "buffer": 0,
      "byteLength": 513408,
      "byteOffset": 370528,
      "byteStride": 12,
      "name": "floatBufferViews",
      "target": 34962
    }
  ],
  "buffers": [
    {
      "byteLength": 883936,
      "uri": "scene.bin"
    }
  ],
  "images": [
    {
      "uri": "textures/material_baseColor.png"
    },
    {
      "uri": "textures/material_1_baseColor.png"
    },
    {
      "uri": "textures/material_2_baseColor.png"
    },
    {
      "uri": "textures/material_3_baseColor.png"
    },
    {
      "uri": "textures/Blades1_baseColor.png"
    },
    {
      "uri": "textures/Blades2_baseColor.png"
    },
    {
      "uri": "textures/Engine1_baseColor.png"
    },
    {
      "uri": "textures/Engine2_baseColor.png"
    },
    {
      "uri": "textures/EVS1_baseColor.png"
    },
    {
      "uri": "textures/EVS2_baseColor.png"
    },
    {
      "uri": "textures/EVS3_baseColor.png"
    },
    {
      "uri": "textures/HStab_baseColor.png"
    },
    {
      "uri": "textures/Rudder1_baseColor.png"
    },
    {
      "uri": "textures/Rudder2_baseColor.png"
    },
    {
      "uri": "textures/Wing1_baseColor.png"
    },
    {
      "uri": "textures/Wing2_baseColor.png"
    },
    {
      "uri": "textures/Wing3_baseColor.png"
    },
    {
      "uri": "textures/Wing4_baseColor.png"
    },
    {
      "uri": "textures/Wng0_baseColor.png"
    },
    {
      "uri": "textures/Wing0.5_baseColor.png"
    }
  ],
  "materials": [
    {
      "name": "material",
      "pbrMetallicRoughness": {
        "baseColorTexture": {
          "index": 0
        },
        "metallicFactor": 0.8,
        "roughnessFactor": 0.8
      }
    },
    {
      "name": "material_1",
      "pbrMetallicRoughness": {
        "baseColorTexture": {
          "index": 1
        },
        "metallicFactor": 0.8,
        "roughnessFactor": 0.8
      }
    },
    {
      "name": "material_2",
      "pbrMetallicRoughness": {
        "baseColorTexture": {
          "index": 2
        },
        "metallicFactor": 0.8,
        "roughnessFactor": 0.8
      }
    },
    {
      "name": "material_3",
      "pbrMetallicRoughness": {
        "baseColorTexture": {
          "index": 3
        },
        "metallicFactor": 0.8,
        "roughnessFactor": 0.8
      }
    },
    {
      "name": "Blades1",
      "pbrMetallicRoughness": {
        "baseColorTexture": {
          "index": 4
        },
        "roughnessFactor": 0.577982
      }
    },
    {
      "name": "Blades2",
      "pbrMetallicRoughness": {
        "baseColorTexture": {
          "index": 5
        },
        "roughnessFactor": 0.357798
      }
    },
    {
      "name": "Engine1",
      "pbrMetallicRoughness": {
        "baseColorTexture": {
          "index": 6
        },
        "metallicFactor": 0.8,
        "roughnessFactor": 0.8
      }
    },
    {
      "name": "Engine2",
      "pbrMetallicRoughness": {
        "baseColorTexture": {
          "index": 7
        },
        "metallicFactor": 0.8,
        "roughnessFactor": 0.8
      }
    },
    {
      "name": "EVS1",
      "pbrMetallicRoughness": {
        "baseColorTexture": {
          "index": 8
        },
        "metallicFactor": 0.8,
        "roughnessFactor": 0.8
      }
    },
    {
      "name": "EVS2",
      "pbrMetallicRoughness": {
        "baseColorTexture": {
          "index": 9
        },
        "metallicFactor": 0.8,
        "roughnessFactor": 0.2
      }
    },
    {
      "name": "EVS3",
      "pbrMetallicRoughness": {
        "baseColorTexture": {
          "index": 10
        },
        "metallicFactor": 0.8,
        "roughnessFactor": 0.2
      }
    },
    {
      "alphaMode": "BLEND",
      "doubleSided": true,
      "name": "Glass",
      "pbrMetallicRoughness": {
        "baseColorFactor": [
          0.3109833122840887,
          0.3109833122840887,
          0.3109833122840887,
          0.29727380740204046
        ],
        "roughnessFactor": 0.13330254488404916
      }
    },
    {
      "name": "HStab",
      "pbrMetallicRoughness": {
        "baseColorTexture": {
          "index": 11
        },
        "metallicFactor": 0.8,
        "roughnessFactor": 0.8
      }
    },
    {
      "name": "Random1",
      "pbrMetallicRoughness": {
        "baseColorFactor": [
          0.221536,
          0.221536,
          0.221536,
          1.0
        ],
        "roughnessFactor": 0.385321
      }
    },
    {
      "name": "Random2",
      "pbrMetallicRoughness": {
        "baseColorFactor": [
          0.94902,
          0.94902,
          0.94902,
          1.0
        ]
      }
    },
    {
      "name": "Random3",
      "pbrMetallicRoughness": {
        "baseColorFactor": [
          0.160784,
          0.160784,
          0.160784,
          1.0
        ],
        "metallicFactor": 0.8,
        "roughnessFactor": 0.8
      }
    },
    {
      "emissiveFactor": [
        1.0,
        0.0,
        0.00140497
      ],
      "name": "RedLights",
      "pbrMetallicRoughness": {
        "baseColorFactor": [
          0.823529,
          0.0,
          0.0,
          1.0
        ]
      }
    },
    {
      "name": "Rudder1",
      "pbrMetallicRoughness": {
        "baseColorTexture": {
          "index": 12
        },
        "metallicFactor": 0.8,
        "roughnessFactor": 0.8
      }
    },
    {
      "name": "Rudder2",
      "pbrMetallicRoughness": {
        "baseColorTexture": {
          "index": 13
        },
        "metallicFactor": 0.8,
        "roughnessFactor": 0.8
      }
    },
    {
      "name": "VertStab1",
      "pbrMetallicRoughness": {
        "baseColorTexture": {
          "index": 13
        },
        "metallicFactor": 0.8,
        "roughnessFactor": 0.8
      }
    },
    {
      "name": "VertStab2",
      "pbrMetallicRoughness": {
        "baseColorTexture": {
          "index": 12
        }
      }
    },
    {
      "name": "Wing1",
      "pbrMetallicRoughness": {
        "baseColorTexture": {
          "index": 14
        },
        "metallicFactor": 0.8,
        "roughnessFactor": 0.8
      }
    },
    {
      "name": "Wing2",
      "pbrMetallicRoughness": {
        "baseColorTexture": {
          "index": 15
        },
        "metallicFactor": 0.8,
        "roughnessFactor": 0.8
      }
    },
    {
      "name": "Wing3",
      "pbrMetallicRoughness": {
        "baseColorTexture": {
          "index": 16
        },
        "metallicFactor": 0.8,
        "roughnessFactor": 0.8
      }
    },
    {
      "name": "Wing4",
      "pbrMetallicRoughness": {
        "baseColorTexture": {
          "index": 17
        },
        "metallicFactor": 0.8,
        "roughnessFactor": 0.8
      }
    },
    {
      "name": "Wng0",
      "pbrMetallicRoughness": {
        "baseColorTexture": {
          "index": 18
        },
        "metallicFactor": 0.8,
        "roughnessFactor": 0.8
      }
    },
    {
      "name": "Wing0.5",
      "pbrMetallicRoughness": {
        "baseColorTexture": {
          "index": 19
        },
        "metallicFactor": 0.8
      }
    }
  ],
  "meshes": [
    {
      "name": "Object_0",
      "primitives": [
        {
          "attributes": {
            "NORMAL": 1,
            "POSITION": 0,
            "TEXCOORD_0": 2
          },
          "indices": 3,
          "material": 0,
          "mode": 4
        }
      ]
    },
    {
      "name": "Object_1",
      "primitives": [
        {
          "attributes": {
            "NORMAL": 5,
            "POSITION": 4,
            "TEXCOORD_0": 6
          },
          "indices": 7,
          "material": 1,
          "mode": 4
        }
      ]
    },
    {
      "name": "Object_2",
      "primitives": [
        {
          "attributes": {
            "NORMAL": 9,
            "POSITION": 8,
            "TEXCOORD_0": 10
          },
          "indices": 11,
          "material": 2,
          "mode": 4
        }
      ]
    },
    {
      "name": "Object_3",
      "primitives": [
        {
          "attributes": {
            "NORMAL": 13,
            "POSITION": 12,
            "TEXCOORD_0": 14
          },
          "indices": 15,
          "material": 3,
          "mode": 4
        }
      ]
    },
    {
      "name": "Object_4",
      "primitives": [
        {
          "attributes": {
            "NORMAL": 17,
            "POSITION": 16,
            "TEXCOORD_0": 18
          },
          "indices": 19,
          "material": 4,
          "mode": 4
        }
      ]
    },
    {
      "name": "Object_5",
      "primitives": [
        {
          "attributes": {
            "NORMAL": 21,
            "POSITION": 20,
            "TEXCOORD_0": 22
          },
          "indices": 23,
          "material": 5,
          "mode": 4
        }
      ]
    },
    {
      "name": "Object_6",
      "primitives": [
        {
          "attributes": {
            "NORMAL": 25,
            "POSITION": 24,
            "TEXCOORD_0": 26
          },
          "indices": 27,
          "material": 6,
          "mode": 4
        }
      ]
    },
    {
      "name": "Object_7",
      "primitives": [
        {
          "attributes": {
            "NORMAL": 29,
            "POSITION": 28,
            "TEXCOORD_0": 30
          },
          "indices": 31,
          "material": 7,
          "mode": 4
        }
      ]
    },
    {
      "name": "Object_8",
      "primitives": [
        {
          "attributes": {
            "NORMAL": 33,
            "POSITION": 32,
            "TEXCOORD_0": 34
          },
          "indices": 35,
          "material": 8,
          "mode": 4
        }
      ]
    },
    {
      "name": "Object_9",
      "primitives": [
        {
          "attributes": {
            "NORMAL": 37,
            "POSITION": 36,
            "TEXCOORD_0": 38
          },
          "indices": 39,
          "material": 9,
          "mode": 4
        }
      ]
    },
    {
      "name": "Object_10",
      "primitives": [
        {
          "attributes": {
            "NORMAL": 41,
            "POSITION": 40,
            "TEXCOORD_0": 42
          },
          "indices": 43,
          "material": 10,
          "mode": 4
        }
      ]
    },
    {
      "name": "Object_11",
      "primitives": [
        {
          "attributes": {
            "NORMAL": 45,
            "POSITION": 44,
            "TEXCOORD_0": 46
          },
          "indices": 47,
          "material": 11,
          "mode": 4
        }
      ]
    },
    {
      "name": "Object_12",
      "primitives": [
        {
          "attributes": {
            "NORMAL": 49,
            "POSITION": 48,
            "TEXCOORD_0": 50
          },
          "indices": 51,
          "material": 12,
          "mode": 4
        }
      ]
    },
    {
      "name": "Object_13",
      "primitives": [
        {
          "attributes": {
            "NORMAL": 53,
            "POSITION": 52,
            "TEXCOORD_0": 54
          },
          "indices": 55,
          "material": 13,
          "mode": 4
        }
      ]
    },
    {
      "name": "Object_14",
      "primitives": [
        {
          "attributes": {
            "NORMAL": 57,
            "POSITION": 56,
            "TEXCOORD_0": 58
          },
          "indices": 59,
          "material": 14,
          "mode": 4
        }
      ]
    },
    {
      "name": "Object_15",
      "primitives": [
        {
          "attributes": {
            "NORMAL": 61,
            "POSITION": 60,
            "TEXCOORD_0": 62
          },
          "indices": 63,
          "material": 15,
          "mode": 4
        }
      ]
    },
    {
      "name": "Object_16",
      "primitives": [
        {
          "attributes": {
            "NORMAL": 65,
            "POSITION": 64,
            "TEXCOORD_0": 66
          },
          "indices": 67,
          "material": 16,
          "mode": 4
        }
      ]
    },
    {
      "name": "Object_17",
      "primitives": [
        {
          "attributes": {
            "NORMAL": 69,
            "POSITION": 68,
            "TEXCOORD_0": 70
          },
          "indices": 71,
          "material": 17,
          "mode": 4
        }
      ]
    },
    {
      "name": "Object_18",
      "primitives": [
        {
          "attributes": {
            "NORMAL": 73,
            "POSITION": 72,
            "TEXCOORD_0": 74
          },
          "indices": 75,
          "material": 18,
          "mode": 4
        }
      ]
    },
    {
      "name": "Object_19",
      "primitives": [
        {
          "attributes": {
            "NORMAL": 77,
            "POSITION": 76,
            "TEXCOORD_0": 78
          },
          "indices": 79,
          "material": 19,
          "mode": 4
        }
      ]
    },
    {
      "name": "Object_20",
      "primitives": [
        {
          "attributes": {
            "NORMAL": 81,
            "POSITION": 80,
            "TEXCOORD_0": 82
          },
          "indices": 83,
          "material": 20,
          "mode": 4
        }
      ]
    },
    {
      "name": "Object_21",
      "primitives": [
        {
          "attributes": {
            "NORMAL": 85,
            "POSITION": 84,
            "TEXCOORD_0": 86
          },
          "indices": 87,
          "material": 21,
          "mode": 4
        }
      ]
    },
    {
      "name": "Object_22",
      "primitives": [
        {
          "attributes": {
            "NORMAL": 89,
            "POSITION": 88,
            "TEXCOORD_0": 90
          },
          "indices": 91,
          "material": 22,
          "mode": 4
        }
      ]
    },
    {
      "name": "Object_23",
      "primitives": [
        {
          "attributes": {
            "NORMAL": 93,
            "POSITION": 92,
            "TEXCOORD_0": 94
          },
          "indices": 95,
          "material": 23,
          "mode": 4
        }
      ]
    },
    {
      "name": "Object_24",
      "primitives": [
        {
          "attributes": {
            "NORMAL": 97,
            "POSITION": 96,
            "TEXCOORD_0": 98
          },
          "indices": 99,
          "material": 24,
          "mode": 4
        }
      ]
    },
    {
      "name": "Object_25",
      "primitives": [
        {
          "attributes": {
            "NORMAL": 101,
            "POSITION": 100,
            "TEXCOORD_0": 102
          },
          "indices": 103,
          "material": 25,
          "mode": 4
        }
      ]
    },
    {
      "name": "Object_26",
      "primitives": [
        {
          "attributes": {
            "NORMAL": 105,
            "POSITION": 104,
            "TEXCOORD_0": 106
          },
          "indices": 107,
          "material": 26,
          "mode": 4
        }
      ]
    },
    {
      "name": "Object_27",
      "primitives": [
        {
          "attributes": {
            "NORMAL": 109,
            "POSITION": 108,
            "TEXCOORD_0": 110
          },
          "indices": 111,
          "material": 21,
          "mode": 4
        }
      ]
    },
    {
      "name": "Object_28",
      "primitives": [
        {
          "attributes": {
            "NORMAL": 113,
            "POSITION": 112,
            "TEXCOORD_0": 114
          },
          "indices": 115,
          "material": 22,
          "mode": 4
        }
      ]
    },
    {
      "name": "Object_29",
      "primitives": [
        {
          "attributes": {
            "NORMAL": 117,
            "POSITION": 116,
            "TEXCOORD_0": 118
          },
          "indices": 119,
          "material": 23,
          "mode": 4
        }
      ]
    },
    {
      "name": "Object_30",
      "primitives": [
        {
          "attributes": {
            "NORMAL": 121,
            "POSITION": 120,
            "TEXCOORD_0": 122
          },
          "indices": 123,
          "material": 24,
          "mode": 4
        }
      ]
    }
  ],
  "nodes": [
    {
      "children": [
        1
      ],
      "matrix": [
        1.0,
        0.0,
        0.0,
        0.0,
        0.0,
        2.220446049250313e-16,
        -1.0,
        0.0,
        0.0,
        1.0,
        2.220446049250313e-16,
        0.0,
        0.0,
        0.0,
        0.0,
        1.0
      ],
      "name": "Sketchfab_model"
    },
    {
      "children": [
        2
      ],
      "name": "root"
    },
    {
      "children": [
        3
      ],
      "matrix": [
        1.0,
        0.0,
        0.0,
        0.0,
        0.0,
        2.220446049250313e-16,
        1.0,
        0.0,
        0.0,
        -1.0,
        2.220446049250313e-16,
        0.0,
        0.0,
        0.0,
        0.0,
        1.0
      ],
      "name": "GLTF_SceneRootNode"
    },
    {
      "children": [
        4,
        5,
        6,
        7,
        8,
        11,
        14,
        18,
        20,
        22,
        25,
        27,
        29,
        32,
        35,
        40
      ],
      "matrix": [
        -0.999999999999996,
        0.0,
        8.742277657347569e-08,
        0.0,
        -0.0,
        1.0,
        0.0,
        0.0,
        -8.742277657347569e-08,
        -0.0,
        -0.999999999999996,
        0.0,
        0.0,
        0.0,
        0.0,
        1.0
      ],
      "name": "Fuselage_12"
    },
    {
      "mesh": 0,
      "name": "Object_4"
    },
    {
      "mesh": 1,
      "name": "Object_5"
    },
    {
      "mesh": 2,
      "name": "Object_6"
    },
    {
      "mesh": 3,
      "name": "Object_7"
    },
    {
      "children": [
        9,
        10
      ],
      "name": "EngineBlades_0"
    },
    {
      "mesh": 4,
      "name": "Object_9"
    },
    {
      "mesh": 5,
      "name": "Object_10"
    },
    {
      "children": [
        12,
        13
      ],
      "name": "Engines_1"
    },
    {
      "mesh": 6,
      "name": "Object_12"
    },
    {
      "mesh": 7,
      "name": "Object_13"
    },
    {
      "children": [
        15,
        16,
        17
      ],
      "name": "EVS_2"
    },
    {
      "mesh": 8,
      "name": "Object_15"
    },
    {
      "mesh": 9,
      "name": "Object_16"
    },
    {
      "mesh": 10,
      "name": "Object_17"
    },
    {
      "children": [
        19
      ],
      "name": "Glass_3"
    },
    {
      "mesh": 11,
      "name": "Object_19"
    },
    {
      "children": [
        21
      ],
      "matrix": [
        1.0,
        0.0,
        0.0,
        0.0,
        0.0,
        0.8390394470823548,
        0.5440705893905093,
        0.0,
        0.0,
        -0.5440705893905093,
        0.8390394470823548,
        0.0,
        0.7612544298171997,
        0.9891276359558105,
        -12.476531028747559,
        1.0
      ],
      "name": "HorizontalStabilizers_4"
    },
    {
      "mesh": 12,
      "name": "Object_21"
    },
    {
      "children": [
        23,
        24
      ],
      "name": "RandomStuff_5"
    },
    {
      "mesh": 13,
      "name": "Object_23"
    },
    {
      "mesh": 14,
      "name": "Object_24"
    },
    {
      "children": [
        26
      ],
      "name": "RandomStuff2_6"
    },
    {
      "mesh": 15,
      "name": "Object_26"
    },
    {
      "children": [
        28
      ],
      "name": "RedLights_7"
    },
    {
      "mesh": 16,
      "name": "Object_28"
    },
    {
      "children": [
        30,
        31
      ],
      "matrix": [
        0.8196998702362654,
        0.1413242104432775,
        0.555085209924777,
        0.0,
        -0.13128589457324338,
        0.9896410963834773,
        -0.05809056924331406,
        0.0,
        -0.5575447395687207,
        -0.025258026278655626,
        0.8297625536789148,
        0.0,
        0.006417841650545597,
        4.870028972625732,
        -17.395109176635742,
        1.0
      ],
      "name": "Rudder_8"
    },
    {
      "mesh": 17,
      "name": "Object_30"
    },
    {
      "mesh": 18,
      "name": "Object_31"
    },
    {
      "children": [
        33,
        34
      ],
      "name": "VerticalStabilizer_9"
    },
    {
      "mesh": 19,
      "name": "Object_33"
    },
    {
      "mesh": 20,
      "name": "Object_34"
    },
    {
      "children": [
        36,
        37,
        38,
        39
      ],
      "name": "WingLeft_10"
    },
    {
      "mesh": 21,
      "name": "Object_36"
    },
    {
      "mesh": 22,
      "name": "Object_37"
    },
    {
      "mesh": 23,
      "name": "Object_38"
    },
    {
      "mesh": 24,
      "name": "Object_39"
    },
    {
      "children": [
        41,
        42,
        43,
        44,
        45,
        46
      ],
      "name": "WingRight_11"
    },
    {
      "mesh": 25,
      "name": "Object_41"
    },
    {
      "mesh": 26,
      "name": "Object_42"
    },
    {
      "mesh": 27,
      "name": "Object_43"
    },
    {
      "mesh": 28,
      "name": "Object_44"
    },
    {
      "mesh": 29,
      "name": "Object_45"
    },
    {
      "mesh": 30,
      "name": "Object_46"
    }
  ],
  "samplers": [
    {
      "magFilter": 9729,
      "minFilter": 9987,
      "wrapS": 10497,
      "wrapT": 10497
    }
  ],
  "scene": 0,
  "scenes": [
    {
      "name": "Sketchfab_Scene",
      "nodes": [
        0
      ]
    }
  ],
  "textures": [
    {
      "sampler": 0,
      "source": 0
    },
    {
      "sampler": 0,
      "source": 1
    },
    {
      "sampler": 0,
      "source": 2
    },
    {
      "sampler": 0,
      "source": 3
    },
    {
      "sampler": 0,
      "source": 4
    },
    {
      "sampler": 0,
      "source": 5
    },
    {
      "sampler": 0,
      "source": 6
    },
    {
      "sampler": 0,
      "source": 7
    },
    {
      "sampler": 0,
      "source": 8
    },
    {
      "sampler": 0,
      "source": 9
    },
    {
      "sampler": 0,
      "source": 10
    },
    {
      "sampler": 0,
      "source": 11
    },
    {
      "sampler": 0,
      "source": 12
    },
    {
      "sampler": 0,
      "source": 13
    },
    {
      "sampler": 0,
      "source": 14
    },
    {
      "sampler": 0,
      "source": 15
    },
    {
      "sampler": 0,
      "source": 16
    },
    {
      "sampler": 0,
      "source": 17
    },
    {
      "sampler": 0,
      "source": 18
    },
    {
      "sampler": 0,
      "source": 19
    }
  ]
}
